<?xml version="1.0" encoding="UTF-8"?>
<svg id="Layer_1" data-name="Layer 1" xmlns="http://www.w3.org/2000/svg" xmlns:xlink="http://www.w3.org/1999/xlink" viewBox="0 0 955.36473430568185 377.483641460528816">
  <defs>
    <style>
      .cls-1 {
        fill: url(#linear-gradient);
      }

      .cls-1, .cls-2, .cls-3, .cls-4, .cls-5, .cls-6, .cls-7, .cls-8, .cls-9, .cls-10, .cls-11, .cls-12 {
        stroke-width: 0px;
      }

      .cls-2 {
        fill: url(#linear-gradient-11);
      }

      .cls-3 {
        fill: url(#linear-gradient-10);
      }

      .cls-4 {
        fill: #000;
      }

      .cls-5 {
        fill: url(#linear-gradient-4);
      }

      .cls-6 {
        fill: url(#linear-gradient-2);
      }

      .cls-7 {
        fill: url(#linear-gradient-3);
      }

      .cls-8 {
        fill: url(#linear-gradient-8);
      }

      .cls-9 {
        fill: url(#linear-gradient-9);
      }

      .cls-10 {
        fill: url(#linear-gradient-7);
      }

      .cls-11 {
        fill: url(#linear-gradient-5);
      }

      .cls-12 {
        fill: url(#linear-gradient-6);
      }
    </style>
    <linearGradient id="linear-gradient" x1="493.106549449136764" y1="-7.497128923251694" x2="546.703007169749526" y2="152.537266931736042" gradientUnits="userSpaceOnUse">
      <stop offset="0" stop-color="#e306e3"/>
      <stop offset=".036439735417453" stop-color="#d012e1"/>
      <stop offset=".116054472827923" stop-color="#ad2adf"/>
      <stop offset=".19668787186363" stop-color="#913dde"/>
      <stop offset=".277716858670234" stop-color="#7d4adc"/>
      <stop offset=".35941686125508" stop-color="#7152dc"/>
      <stop offset=".442823589264237" stop-color="#6e55dc"/>
      <stop offset=".533872543710235" stop-color="#655bdc"/>
      <stop offset=".680657594485137" stop-color="#4d6bdd"/>
      <stop offset=".86375198389207" stop-color="#2786de"/>
      <stop offset="1" stop-color="#069de0"/>
    </linearGradient>
    <linearGradient id="linear-gradient-2" x1="462.797416046313629" y1="-9.210863526147477" x2="408.488403940064643" y2="152.561014425480948" gradientUnits="userSpaceOnUse">
      <stop offset="0" stop-color="#e306e3"/>
      <stop offset=".080512381175904" stop-color="#e60ab2"/>
      <stop offset=".161052361714086" stop-color="#e90e89"/>
      <stop offset=".239879935818052" stop-color="#eb116a"/>
      <stop offset=".315806969570009" stop-color="#ed1353"/>
      <stop offset=".387517669062502" stop-color="#ee1445"/>
      <stop offset=".450667436369888" stop-color="#ef1541"/>
      <stop offset=".548655253819553" stop-color="#f01a3d"/>
      <stop offset=".678223346950499" stop-color="#f22b35"/>
      <stop offset=".825462732220197" stop-color="#f74627"/>
      <stop offset=".984672581078117" stop-color="#fe6c14"/>
      <stop offset="1" stop-color="#ff7112"/>
    </linearGradient>
    <linearGradient id="linear-gradient-3" x1="364.757720044294729" y1="29.085149025002465" x2="405.286530863611119" y2="192.661025842841639" gradientUnits="userSpaceOnUse">
      <stop offset=".041379944222234" stop-color="#ef1541"/>
      <stop offset=".100279793363505" stop-color="#f12339"/>
      <stop offset=".284352123414016" stop-color="#f84d24"/>
      <stop offset=".429071302662089" stop-color="#fd6716"/>
      <stop offset=".515579361520083" stop-color="#ff7112"/>
      <stop offset=".675469819271299" stop-color="#fe8b12"/>
      <stop offset="1" stop-color="#fccc12"/>
    </linearGradient>
    <linearGradient id="linear-gradient-4" x1="304.867015351924238" y1="119.140956956443915" x2="430.55960070868457" y2="235.725232093318766" gradientUnits="userSpaceOnUse">
      <stop offset=".05929792215996" stop-color="#ff7112"/>
      <stop offset=".075410711314264" stop-color="#fe7512"/>
      <stop offset=".212032328896086" stop-color="#fd9b12"/>
      <stop offset=".338940822491084" stop-color="#fcb512"/>
      <stop offset=".451439868709009" stop-color="#fcc612"/>
      <stop offset=".537837151175563" stop-color="#fccc12"/>
    </linearGradient>
    <linearGradient id="linear-gradient-5" x1="589.061443529527423" y1="30.608068407310384" x2="550.117227813383693" y2="194.391939787936167" gradientUnits="userSpaceOnUse">
      <stop offset=".106413922681349" stop-color="#6e55dc"/>
      <stop offset=".180222984200976" stop-color="#5a62dc"/>
      <stop offset=".419591224074567" stop-color="#1d8cdf"/>
      <stop offset=".533732302261383" stop-color="#069de0"/>
      <stop offset=".797343610281213" stop-color="#06bdcd"/>
      <stop offset="1" stop-color="#07d9bd"/>
    </linearGradient>
    <linearGradient id="linear-gradient-6" x1="649.403224843781572" y1="119.879562444464682" x2="529.026944834400069" y2="231.758507530033711" gradientUnits="userSpaceOnUse">
      <stop offset=".117252043340638" stop-color="#05ac3f"/>
      <stop offset=".295936201846922" stop-color="#05ad42"/>
      <stop offset=".434094563178557" stop-color="#05b04b"/>
      <stop offset=".558713831948163" stop-color="#05b65c"/>
      <stop offset=".675292670196898" stop-color="#05be73"/>
      <stop offset=".786301082684744" stop-color="#06c991"/>
      <stop offset=".891740426357816" stop-color="#06d6b5"/>
      <stop offset=".910123978329676" stop-color="#07d9bd"/>
    </linearGradient>
    <linearGradient id="linear-gradient-7" x1="503.135751254193565" y1="2.399851325902091" x2="529.929863241656449" y2="82.404756626488393" gradientUnits="userSpaceOnUse">
      <stop offset="0" stop-color="#bd27e2"/>
      <stop offset=".139253487740399" stop-color="#a83de1"/>
      <stop offset=".328839911721942" stop-color="#9157e1"/>
      <stop offset=".442823589264237" stop-color="#8961e1"/>
      <stop offset="1" stop-color="#817de3"/>
    </linearGradient>
    <linearGradient id="linear-gradient-8" x1="445.893788361392581" y1="-1.31736083713713" x2="421.520431158532574" y2="117.217943808524311" gradientUnits="userSpaceOnUse">
      <stop offset=".00565495260284" stop-color="#e70bac"/>
      <stop offset=".052427129969545" stop-color="#e80d9d"/>
      <stop offset=".203022325456932" stop-color="#ed1475"/>
      <stop offset=".322158645523728" stop-color="#ef195c"/>
      <stop offset=".39425942014291" stop-color="#f11b53"/>
      <stop offset=".560613579081609" stop-color="#f22e55"/>
      <stop offset=".74624915565657" stop-color="#f34057"/>
      <stop offset=".894249786410525" stop-color="#f55458"/>
      <stop offset="1" stop-color="#f75e59"/>
    </linearGradient>
    <linearGradient id="linear-gradient-9" x1="363.969545157080574" y1="50.193114671768853" x2="384.438394012315541" y2="132.806194879666265" gradientUnits="userSpaceOnUse">
      <stop offset="0" stop-color="#f3313b"/>
      <stop offset=".21808858478642" stop-color="#f64e3c"/>
      <stop offset=".564524420115716" stop-color="#fa783f"/>
      <stop offset=".837092583195677" stop-color="#fd9240"/>
      <stop offset="1" stop-color="#fe9c41"/>
    </linearGradient>
    <linearGradient id="linear-gradient-10" x1="316.75973753022663" y1="134.902608235745902" x2="341.230443969455223" y2="159.467613959578642" gradientUnits="userSpaceOnUse">
      <stop offset="0" stop-color="#fe9d3b"/>
      <stop offset=".763096053292024" stop-color="#fdb83f"/>
      <stop offset="1" stop-color="#fdc241"/>
    </linearGradient>
    <linearGradient id="linear-gradient-11" x1="586.039075970732483" y1="49.814148030925026" x2="580.599058142154036" y2="72.692697873561912" gradientUnits="userSpaceOnUse">
      <stop offset=".021869906931887" stop-color="#8677e2"/>
      <stop offset=".533287246381393" stop-color="#7984e4"/>
      <stop offset="1" stop-color="#6293e5"/>
    </linearGradient>
  </defs>
  <path class="cls-4" d="M101.715677138969113,348.394959086954259l9.126038770712512,13.687822793001033c-8.979152961390355,7.209329299056662-24.420600562495565,15.400859580573524-43.918392429070991,15.400859580573524-40.049399744585571,0-66.923323480610634-29.197038621990032-66.923323480610634-66.73266578046605,0-38.428881680502855,28.843785340974136-66.544890594132994,67.113157605397646-66.544890594132994,18.841038963726533,0,33.319693729317805,6.494056838774668,42.587906404865862,13.87889228084623l-9.886610632896009,13.689469943758013c-3.382643496381206-2.51742766188363-14.877499044780961-11.027674319992911-32.891129896756865-11.027674319992911-28.436826326712435,0-48.861491851650499,20.62198210247243-48.861491851650499,50.004202689521662,0,30.479266705895498,20.803778115831847,50.191977875854718,48.861491851650499,50.191977875854718,17.200847096546568,0,28.616232906881123-7.913171531515218,34.792353658358479-12.547994468963225ZM523.975741237834882,360.942953555917484c-28.057713735817742,0-48.861491851649589-19.712711169959221-48.861491851649589-50.191977875854718,0-29.382220587049233,20.424665524937154-50.004202689521662,48.861491851649589-50.004202689521662,18.013630851973176,0,29.508486400372931,8.510246658109281,32.891129896756865,11.027674319992911l9.886610632897828-13.689469943758013c-9.268212675551695-7.384835442071562-23.74686744113842-13.87889228084623-42.587906404867681-13.87889228084623-38.269372264424419,0-67.113157605399465,28.116008913630139-67.113157605399465,66.544890594132994,0,37.535627158476018,26.873923736025972,66.73266578046605,66.923323480612453,66.73266578046605,19.497791866574516,0,34.939239467678817-8.191530281516862,43.918392429071901-15.400859580573524l-9.126038770714331-13.687822793001033c-6.176120751475537,4.634822937448007-17.591506561811912,12.547994468963225-34.79235365835757,12.547994468963225ZM261.040452013824506,310.750975680062766c0,36.630040161447141-27.733943791842648,66.73266578046605-66.35258574323143,66.73266578046605-37.643276227569913,0-66.542831655678128-28.845345995731805-66.542831655678128-66.73266578046605,0-37.593588203343643,28.306549688130872-66.544890594132994,66.542831655678128-66.544890594132994,37.789026439478221,0,66.35258574323143,29.403754854626641,66.35258574323143,66.544890594132994ZM242.788786260079178,310.750975680062766c0-29.713936676586854-20.44405934403585-50.004202689521662-48.100919989486101-50.004202689521662-27.27594066320944,0-48.481411814417697,20.143238329748783-48.481411814417697,50.004202689521662,0,30.044205053423866,21.205471151208258,50.191977875854718,48.481411814417697,50.191977875854718,27.175108735694266,0,48.100919989486101-19.742094474253463,48.100919989486101-50.191977875854718ZM392.984639850406893,246.29796654767506l-33.271621721689371,105.898616487082109h-.950817774650204l-34.222027708639871-105.898616487082109h-25.096400725606145l-20.532969552578834,129.093793451107558h18.061419841278621l16.160607867360341-107.038444811121735h1.140651899416298l34.602519533570558,107.038444811121735h20.532969552580653l33.842359459086765-107.038444811121735h.950405986951409l16.540687904611332,107.038444811121735h17.871585716493428l-20.533381340259439-129.093793451107558h-25.09598893792554ZM789.390000035985395,303.335502970785456c-2.714842770745236-.68621795753279-11.722868585552533-2.890223498001433-16.160607867358522-3.992693435645378-9.85537760592706-2.448376717237807-22.243947401697369-6.8321395468829-22.243947401697369-19.582975353310758,0-11.44585710245974,9.300541226994937-19.772397690396247,28.137864598925262-19.772397690396247,17.24809839635509,0,26.973234384689931,5.764301475121101,34.22202770864078,10.836604832149533l10.076856545361807-13.687822793001942c-5.451245431219832-3.80327109855989-20.239393902563279-12.547994468963225-43.53831239182-12.547994468963225-31.054337283168934,0-46.770022177602186,16.660464748286358-46.770022177602186,36.691930269183104,0,16.687555231618717,9.465017885882844,28.98814266201498,37.453737494425695,35.553749095901367,5.463030397272632,1.281520127622571,15.209790092727417,3.612201610716511,15.209790092727417,3.612201610716511,16.576446080399364,3.912388680251752,22.814685139093854,9.563704917758514,22.814685139093854,19.393553016221631,0,12.231211590977182-10.454230774727876,22.243123826315241-31.94031212212667,22.243123826315241-16.754547144022581,0-28.422730087472701-5.52462903450305-38.975293006453285-13.687822793001033l-10.2666906701279,13.498400455913725c10.314904749994639,8.57111875436658,26.089456471969243,15.590281917660832,47.721251739932086,15.590281917660832,33.924771968679124,0,51.142795650483095-18.056648561918337,51.142795650483095-39.165950706616968,0-13.536926607895111-5.745676817871754-27.111545868679059-36.883823332404063-34.982187783126392ZM659.346212385625222,246.29796654767506l53.234265324551416,129.093793451107558h-19.202483528376433l-13.327096777157749-33.461867634156079h-62.058051931303453l-13.211796224148202,33.461867634156079h-18.821991703443928l52.853773499618001-129.093793451107558h20.533381340260348ZM673.766193690239561,326.1501881098784l-24.306180149811553-61.028582708000613h-1.140651899417207l-24.096168428257442,61.028582708000613h49.543000477486203ZM955.36473430568185,246.29796654767506h-108.940080360401225v16.161843230436716h45.629370278187707v112.931950220670842h17.681339804028539v-112.931950220670842h45.629370278184979v-16.161843230436716Z"/>
  <g>
    <g>
      <path class="cls-1" d="M519.408569505641026-.000000000000909C504.919756774164853-.000000000000909,491.265061091879943,8.178268061789822,486.317453335244863,21.235484037691094c-1.968029224577549,5.193770005646002-2.785310704714902,10.386234644711294-2.376364972451483,15.9232459144514h15.029173499922763c6.221645545241699,0,10.000047429901315,3.217710336626624,10.000047429901315,5.39145679549074-15.746551737274785,6.154370367266893-22.046775471148067,14.490935477135281-21.124967066574754,21.047566147799444l13.939448593495399,99.148637203412363,49.20733064545675-113.321642718581643c3.30796972627013-7.59715423648413,3.991713424549744-13.979304973283433,1.617117406820398-23.259595226734746-2.237056738300453-8.742570717400667-7.572468168376872-17.307840323150231-19.37486086384888-22.996678231598707C529.105125303985005,1.293067776489806,523.896566226887444.000003049920451,519.408569505641026-.000000000000909Z"/>
      <path class="cls-6" d="M435.90215840991732-.000000000000909C431.414137289286373-.000000000000909,426.205492814380705,1.026346003735853,422.076252310098425,2.901752149175991c-11.802398795334739,5.688847058223473-17.404531998148741,14.521115979618116-19.641576536771026,23.263698896695132-2.374638716635673,9.280296353290396-.842052946058175,17.281058958664289,1.883704983014468,23.526384097782284l49.342448286864965,113.054762349873272,17.691852943618869-123.205317327254306c.881891026332596-6.141426498592409.171332414419339-12.538756696843848-2.116548222955316-18.30593642499116C464.087194560694115,8.256175267607432,451.307814273062831.000007624807949,435.90215840991732-.000000000000909Z"/>
      <path class="cls-7" d="M349.53991326465075,55.335325287865089c-3.842672889526511,2.318666549350382-7.713835099825701,6.005259684034172-10.13890732551954,9.837596388137172-6.748643080740294,10.664857212846982-7.267347878512737,22.93160662223454-4.719647441706911,30.805358278697895,2.71020637714355,8.376000600446787,8.042189694970148,14.233741660491432,14.697238296428623,18.694899068750601l99.884635214151785,66.939967145141054-48.527222454104049-110.478298099344102c-2.495177731219883-5.68057109505753-6.870339540695568-10.785390127575738-11.933453940715481-14.371421236337483-11.201124986045215-7.933365430531921-27.237608401984289-8.684000016621212-39.262642348534428-1.428101545045138Z"/>
      <path class="cls-5" d="M308.069213693324855,150.433952858912562c-1.989491620510307,4.022981224210525-3.065253603106612,9.282791189431009-2.946525860916154,13.816402543099684.330399567799759,12.616441258360283,4.663311189995511,21.239082945558039,13.227473292841751,27.989194563717319,5.239104045245767,4.129374700849439,14.604368173620969,7.577811631595978,22.616333142254007,7.578372817228228l116.411970015809857.008002995156858-96.879861277010605-64.879647282927181c-3.316817549800362-2.221245943015674-10.462565040897061-6.104272349613893-19.87196153963032-6.173310382465388-7.912211172011666-.058046114198987-14.979023633597535,2.595141972445163-20.604057175241905,6.940499944800649-7.285227283355198,5.627862344228561-9.808284350949179,10.382885830436862-11.95337059810663,14.72048480138983Z"/>
      <path class="cls-11" d="M605.728021196288864,55.335325287865089c3.842657639918798,2.318666549350382,7.713838149748881,6.005259684034172,10.138916475277256,9.837596388137172,6.748647655618697,10.664857212846982,7.267329578979115,22.93160662223454,4.719644391791007,30.805358278697895-2.710209427074005,8.376000600446787-8.042180545200608,14.233741660491432-14.697232196574987,18.694899068750601l-99.884650463772232,66.939967145141054,48.527234653795858-110.478298099344102c2.495177731212607-5.68057109505753,6.870351740366459-10.785390127575738,11.933466140399105-14.371421236337483,11.201118886212498-7.933365430531921,27.237584002603398-8.684000016621212,39.262645398455788-1.428101545045138h-.000024399371796Z"/>
      <path class="cls-12" d="M647.295504798048569,150.433952858912562c1.989500674978444,4.022981224210525,3.065269138651274,9.282791189431009,2.946541777691891,13.816402543099684-.330416342350873,12.616441258360283-4.663306233858748,21.239082945558039-13.227487017486055,27.989194563717319-5.2391070951644,4.129374700849439-14.604368173613693,7.577811631595978-22.616342292007175,7.578372817228228l-116.681619713628606.008002995156858,97.014698325621794-64.879793679185241c3.318266262705947-2.219123197348381,10.543018931519327-6.17331038246266,20.438234444788577-6.17331038246266,7.912449065922374,0,14.84421403432043,2.59514197244971,20.469246050996844,6.940499944801559,7.285238720560301,5.627862344241294,9.511657331168863,10.382885830437772,11.656752823409988,14.720497001075273l-.000024399387257.000134196568979Z"/>
    </g>
    <g id="Shine">
      <path class="cls-10" d="M519.408569505641026-.000000000000909C504.919756774164853-.000000000000909,491.265061091879943,8.178268061789822,486.317453335244863,21.235484037691094c-1.968029224577549,5.193770005646002-2.785310704714902,10.386234644711294-2.376364972451483,15.9232459144514h15.029173499922763c6.221645545241699,0,10.000047429901315,3.217710336626624,10.000047429901315,5.39145679549074-15.746551737274785,6.154370367266893-22.046775471148067,14.490935477135281-21.124967066574754,21.047566147799444l4.223016110976459,30.037507544370783s12.881374856497132-4.209265822470115,23.389872048190227-7.546374324832868c10.508497191691276-3.337108502362753,22.644861583057718-6.981447630382718,22.644861583057718-6.981447630382718l12.889029496727744-29.682691104324476c3.30796972627013-7.59715423648413,3.991713424549744-13.979304973283433,1.617117406820398-23.259595226734746-2.237056738300453-8.742570717400667-7.572468168376872-17.307840323150231-19.37486086384888-22.996678231598707C529.105125303985005,1.293067776489806,523.896566226887444.000003049920451,519.408569505641026-.000000000000909Z"/>
      <path class="cls-8" d="M435.90215840991732-.000000000000909C431.414137289286373-.000000000000909,426.205492814380705,1.026346003735853,422.076252310098425,2.901752149175991c-11.802398795334739,5.688847058223473-17.404531998148741,14.521115979618116-19.641576536771026,23.263698896695132-2.374638716635673,9.280296353290396-.842052946058175,17.281058958664289,1.883704983014468,23.526384097782284l28.359935523774766,64.979057225897122s7.801953082791442-3.014609778931117,13.175385133677082-4.983958397479c5.373432050883821-1.969348618547883,16.253839771165985-5.762883393959783,16.253839771165985-5.762883393959783l9.245140801866-64.382770411839374c.881891026332596-6.141426498592409.171332414419339-12.538756696843848-2.116548222955316-18.30593642499116C464.087194560694115,8.256175267607432,451.307814273062831.000007624807949,435.90215840991732-.000000000000909Z"/>
      <path class="cls-9" d="M421.652825243625557,118.754598019783771l-20.916815689724899-47.619749950536061c-2.495177731219883-5.68057109505753-6.870339540695568-10.785390127575738-11.933453940715481-14.371421236337483-11.201124986045215-7.933365430531921-27.237608401984289-8.684000016621212-39.262642348534428-1.428101545045138-3.842672889526511,2.318666549350382-7.713835099825701,6.005259684034172-10.13890732551954,9.837596388137172-6.748643080740294,10.664857212846982-7.267347878512737,22.93160662223454-4.719647441706911,30.805358278697895,2.71020637714355,8.376000600446787,8.042189694970148,14.233741660491432,14.697238296428623,18.694899068750601l30.962257778359344,20.750063450489506s10.816789717136999-4.647462402271231,21.032638708560626-8.709185495246857c10.220717516547666-4.063658771639894,20.279331962852666-7.959458958909636,20.279331962852666-7.959458958909636Z"/>
      <path class="cls-3" d="M368.714695387989195,140.448528072563931l-8.216092381685485-5.50224957737646c-3.316817549800362-2.221245943015674-10.462565040897061-6.104272349613893-19.87196153963032-6.173310382465388-7.912211172011666-.058046114198987-14.979023633597535,2.595141972445163-20.604057175241905,6.940499944800649-7.285227283355198,5.627862344228561-9.808284350949179,10.382885830436862-11.95337059810663,14.72048480138983-1.989491620510307,4.022981224210525-3.065253603106612,9.282791189431009-2.946525860916154,13.816402543099684.052464932572548,2.003394690617824.205853282004682,3.906085649804481.461080906150528,5.71656634044939.017997366150666.127665976628123.055511564135486.38162540000576.055511564135486.38162540000576,0,0,14.704452797713202-7.682405615169046,28.957594109028832-14.424367695760338s34.117820976265648-15.475651374143126,34.117820976265648-15.475651374143126Z"/>
      <path class="cls-2" d="M605.728021196288864,55.335325287865089c1.684397296256066,1.01636836601574,3.37427507641496,2.295574926697554,4.945433757789033,3.73468190805761.091819561328521.084102371898553.274217506475907.253924899294361.274217506475907.253924899294361,0,0-22.080753230524351,5.476282933464063-31.264673070429126,8.001167239903225-9.183919839905684,2.524884306439162-26.747573596689108,7.444398783671204-26.747573596689108,7.444398783671204l1.596508263370197-3.634650049543779c2.495177731212607-5.68057109505753,6.870351740366459-10.785390127575738,11.933466140399105-14.371421236337483,11.201118886212498-7.933365430531921,27.237584002603398-8.684000016621212,39.262645398455788-1.428101545045138h-.000024399371796Z"/>
    </g>
  </g>
</svg>